<svg width="188" height="182" viewBox="0 0 188 182" fill="none" xmlns="http://www.w3.org/2000/svg">
<path d="M31.3333 151.667C32.6115 151.44 33.876 151.213 35.1268 150.985L42.4663 149.61C44.8579 149.148 47.1944 148.684 49.4759 148.216L56.1556 146.805L62.5053 145.377C63.5361 145.137 64.5532 144.897 65.5565 144.656L71.4113 143.201C72.3596 142.957 73.2941 142.712 74.215 142.467L79.5748 140.986C84.7698 139.495 89.4698 137.979 93.6748 136.436L97.715 134.884C106.111 131.502 112.184 127.996 115.933 124.367C131.508 109.289 131.508 84.844 115.933 69.7667C100.359 54.6893 75.1077 54.6893 59.5332 69.7667C55.7838 73.3964 52.1626 79.2753 48.6696 87.4035L47.0665 91.3147C45.4725 95.3856 43.9059 99.9356 42.3665 104.965L40.8363 110.154C40.3292 111.936 39.8252 113.772 39.3242 115.662L37.8303 121.489L36.3547 127.637C36.1103 128.688 35.8666 129.752 35.6237 130.83L34.1753 137.456C33.6956 139.718 33.2189 142.033 32.7452 144.402L31.3333 151.667ZM31.3333 151.667L40.1971 149.941L50.5627 147.86L59.2679 146.03L66.3128 144.451L70.5069 143.432L74.7012 142.312L79.4212 140.95L84.6669 139.347C85.5849 139.06 86.5249 138.763 87.4868 138.456L93.5209 136.492L39.8418 113.733L31.3333 151.667ZM132.853 64.3067L130.033 67.0367L172.333 58.8467L127.213 15.1667L118.753 56.1167L121.573 53.3867M132.853 64.3067L121.573 53.3867M132.853 64.3067L121.573 75.2267L110.293 64.3067L121.573 53.3867M152.75 34.125L137.083 49.2917" stroke="white" stroke-width="1.55963" stroke-linejoin="round"/>
</svg>
