<svg width="158" height="138" viewBox="0 0 158 138" fill="none" xmlns="http://www.w3.org/2000/svg">
<path d="M91.6862 80.0803L90.7804 74.8176L89.84 69.8042L88.8652 65.0402L87.8559 60.5254L86.812 56.26L85.7337 52.244C81.899 38.6241 77.4304 29.5858 72.3276 25.129C60.2997 14.6236 40.7987 14.6236 28.7708 25.129M91.6862 80.0803L85.6607 79.2892L79.9208 78.4679L74.4663 77.6164L69.2972 76.7349L64.4137 75.8231L59.8156 74.8813C44.2218 71.5321 33.8736 67.629 28.7708 63.1722C16.743 52.6669 16.743 35.6343 28.7708 25.129M91.6862 80.0803C67.488 73.0353 49.7426 64.5812 38.4501 54.7182C21.5114 39.9236 21.5114 31.4695 28.7708 25.129M91.6862 80.0803C83.6201 58.9452 73.9408 43.4461 62.6483 33.583C45.7096 18.7884 36.0303 18.7884 28.7708 25.129M29.6249 25.8749L102.042 89.1249M108.625 82.1939L98.9457 86.4209L94.106 94.8749L120.724 118.124C124.733 121.625 131.234 121.625 135.243 118.124C139.252 114.622 139.252 108.944 135.243 105.443L108.625 82.1939Z" stroke="white" stroke-width="1.55963" stroke-linejoin="round"/>
</svg>
