<svg width="148" height="138" viewBox="0 0 148 138" fill="none" xmlns="http://www.w3.org/2000/svg">
<path d="M62.1166 80.0803L62.9651 74.8176L63.8459 69.8042L64.7591 65.0402L65.7045 60.5254L66.6823 56.26L67.6924 52.244C71.2843 38.6241 75.4702 29.5858 80.25 25.129C91.5166 14.6236 109.783 14.6236 121.05 25.129M62.1166 80.0803L67.7607 79.2892L73.1374 78.4679L78.2467 77.6164L83.0885 76.7349L87.663 75.8231L91.9701 74.8813C106.577 71.5321 116.27 67.629 121.05 63.1722C132.317 52.6669 132.317 35.6343 121.05 25.129M62.1166 80.0803C84.7833 73.0353 101.406 64.5812 111.983 54.7182C127.85 39.9236 127.85 31.4695 121.05 25.129M62.1166 80.0803C69.6722 58.9452 78.7388 43.4461 89.3166 33.583C105.183 18.7884 114.25 18.7884 121.05 25.129M120.25 25.8749L52.4166 89.1249M46.2499 82.1939L55.3166 86.4209L59.8499 94.8749L34.9166 118.124C31.1611 121.625 25.0721 121.625 21.3166 118.124C17.5611 114.622 17.5611 108.944 21.3166 105.443L46.2499 82.1939Z" stroke="white" stroke-width="1.55963" stroke-linejoin="round"/>
</svg>
