<svg width="48" height="48" viewBox="0 0 48 48" fill="none" xmlns="http://www.w3.org/2000/svg">
<path d="M47.9999 17.1429H39.8492L31.2861 0.832031C30.8614 0.0217989 29.9399 -0.242739 29.2281 0.244439C28.5176 0.731617 28.2876 1.78457 28.7139 2.59654L36.3507 17.1429H11.6493L19.2861 2.59642C19.7124 1.78446 19.4824 0.731502 18.7719 0.244324C18.0585 -0.242854 17.1401 0.0216836 16.7139 0.831916L8.15081 17.1427H0V20.5713H3.25562L7.06638 43.803C7.46479 46.2355 9.32512 48 11.4903 48H36.5097C38.6748 48 40.5351 46.2355 40.9321 43.8047L44.7442 20.5713H48L47.9999 17.1429ZM37.9833 43.1736C37.8515 43.9838 37.2318 44.5715 36.5096 44.5715H11.4903C10.7681 44.5715 10.1485 43.9839 10.0152 43.172L6.30693 20.5713H41.6931L37.9833 43.1736Z" fill="white"/>
</svg>
