<svg width="117" height="112" viewBox="0 0 117 112" fill="none" xmlns="http://www.w3.org/2000/svg">
<path d="M97.4999 93.3333C96.7044 93.194 95.9175 93.0543 95.1391 92.9141L90.5714 92.0675C89.083 91.7835 87.6289 91.4977 86.209 91.2101L82.052 90.3418L78.1003 89.4627C77.4588 89.3153 76.8258 89.1674 76.2014 89.0191L72.5578 88.1237C71.9676 87.9736 71.386 87.823 70.8129 87.6719L67.4772 86.7603C64.2442 85.8432 61.3192 84.9099 58.7022 83.9603L56.1879 83.0053C50.9627 80.9243 47.1833 78.767 44.8499 76.5333C35.1573 67.2549 35.1573 52.2117 44.8499 42.9333C54.5425 33.6549 70.2573 33.6549 79.9499 42.9333C82.2833 45.167 84.537 48.7848 86.7108 53.7868L87.7085 56.1936C88.7005 58.6988 89.6755 61.4988 90.6335 64.5936L91.5858 67.7868C91.9014 68.8839 92.2151 70.0138 92.5269 71.1765L93.4565 74.7627L94.3749 78.5455C94.527 79.1924 94.6787 79.8474 94.8298 80.5106L95.7312 84.5883C96.0298 85.9803 96.3264 87.405 96.6212 88.8625L97.4999 93.3333ZM97.4999 93.3333L91.9836 92.2713L85.5327 90.9906L80.1151 89.8646L75.7307 88.8932L73.1206 88.2661L70.5103 87.5764L67.5729 86.7384L64.3083 85.7522C63.7369 85.5755 63.1519 85.3926 62.5533 85.2036L58.798 83.995L92.2047 69.9894L97.4999 93.3333ZM34.3199 39.5733L36.0749 41.2533L9.74994 36.2133L37.8299 9.33331L43.0949 34.5333L41.3399 32.8533M34.3199 39.5733L41.3399 32.8533M34.3199 39.5733L41.3399 46.2933L48.3599 39.5733L41.3399 32.8533M21.9374 21L31.6874 30.3333" stroke="white" stroke-width="1.55963" stroke-linejoin="round"/>
</svg>
