<svg width="148" height="138" viewBox="0 0 148 138" fill="none" xmlns="http://www.w3.org/2000/svg">
<path d="M62.1167 80.0804L62.9652 74.8177L63.846 69.8043L64.7592 65.0402L65.7046 60.5255L66.6824 56.2601L67.6925 52.244C71.2844 38.6242 75.4703 29.5858 80.2501 25.129C91.5167 14.6237 109.783 14.6237 121.05 25.129M62.1167 80.0804L67.7608 79.2892L73.1375 78.4679L78.2468 77.6165L83.0887 76.7349L87.6631 75.8232L91.9702 74.8814C106.577 71.5321 116.27 67.6291 121.05 63.1723C132.317 52.6669 132.317 35.6344 121.05 25.129M62.1167 80.0804C84.7834 73.0353 101.406 64.5813 111.983 54.7182C127.85 39.9236 127.85 31.4696 121.05 25.129M62.1167 80.0804C69.6723 58.9453 78.739 43.4461 89.3167 33.5831C105.183 18.7885 114.25 18.7885 121.05 25.129M120.25 25.875L52.4167 89.125M46.2501 82.1939L55.3167 86.4209L59.8501 94.875L34.9167 118.124C31.1612 121.625 25.0723 121.625 21.3167 118.124C17.5612 114.622 17.5612 108.944 21.3167 105.443L46.2501 82.1939Z" stroke="white" stroke-width="1.55963" stroke-linejoin="round"/>
</svg>
